<svg width="81" height="81" viewBox="0 0 81 81" fill="none" xmlns="http://www.w3.org/2000/svg">
<rect width="81" height="81" fill="#FFECBA"/>
<path d="M18 27.1667L24.75 26V61L18 58.6667V27.1667Z" fill="#BF4242"/>
<path d="M18 21.3333L24.75 19V23.6667L18 25.4167V21.3333Z" fill="#5A8C23"/>
<path d="M18 23.6665L24.75 21.3331V25.9998L18 27.7498V23.6665Z" fill="#9DCA6C"/>
<path d="M24.75 21.3331C24.75 36.8239 24.75 60.9998 24.75 60.9998H60.75C60.75 39.2776 44.4643 21.3331 24.75 21.3331Z" fill="#FF6666"/>
<path fill-rule="evenodd" clip-rule="evenodd" d="M24.75 23.9412V19C45.6964 19 63 38 63 61H58.325C58.325 40.8627 43.0894 23.9412 24.75 23.9412Z" fill="#69A528"/>
<path fill-rule="evenodd" clip-rule="evenodd" d="M24.75 25.9998V21.3331C44.4643 21.3331 60.75 39.2776 60.75 60.9998H56.35C56.35 41.9812 42.0106 25.9998 24.75 25.9998Z" fill="#C2FF80"/>
</svg>
