<svg width="45" height="42" viewBox="0 0 45 42" fill="none" xmlns="http://www.w3.org/2000/svg">
<path d="M0 8.16667L6.75 7V42L0 39.6667V8.16667Z" fill="#BF4242"/>
<path d="M0 2.33333L6.75 0V4.66667L0 6.41667V2.33333Z" fill="#5A8C23"/>
<path d="M0 4.66646L6.75 2.33313V6.9998L0 8.7498V4.66646Z" fill="#9DCA6C"/>
<path d="M6.75 2.33313C6.75 17.8239 6.75 41.9998 6.75 41.9998H42.75C42.75 20.2776 26.4643 2.33313 6.75 2.33313Z" fill="#FF6666"/>
<path fill-rule="evenodd" clip-rule="evenodd" d="M6.75 4.94118V0C27.6964 0 45 19 45 42H40.325C40.325 21.8627 25.0894 4.94118 6.75 4.94118Z" fill="#69A528"/>
<path fill-rule="evenodd" clip-rule="evenodd" d="M6.75 6.9998V2.33313C26.4643 2.33313 42.75 20.2776 42.75 41.9998H38.35C38.35 22.9812 24.0106 6.9998 6.75 6.9998Z" fill="#C2FF80"/>
</svg>
